<?xml version="1.0" encoding="UTF-8" standalone="no"?>
<!-- Created with Inkscape (http://www.inkscape.org/) -->

<svg
   width="14.436469mm"
   height="14.176292mm"
   viewBox="0 0 14.436469 14.176292"
   version="1.1"
   id="svg1"
   inkscape:version="1.4.2 (ebf0e940d0, 2025-05-08)"
   sodipodi:docname="almalinux-logo.svg"
   xmlns:inkscape="http://www.inkscape.org/namespaces/inkscape"
   xmlns:sodipodi="http://sodipodi.sourceforge.net/DTD/sodipodi-0.dtd"
   xmlns="http://www.w3.org/2000/svg"
   xmlns:svg="http://www.w3.org/2000/svg">
  <sodipodi:namedview
     id="namedview1"
     pagecolor="#ffffff"
     bordercolor="#000000"
     borderopacity="0.25"
     inkscape:showpageshadow="2"
     inkscape:pageopacity="0.0"
     inkscape:pagecheckerboard="true"
     inkscape:deskcolor="#d1d1d1"
     inkscape:document-units="mm"
     inkscape:zoom="6.5805367"
     inkscape:cx="25.681796"
     inkscape:cy="40.802143"
     inkscape:window-width="1920"
     inkscape:window-height="1140"
     inkscape:window-x="0"
     inkscape:window-y="0"
     inkscape:window-maximized="1"
     inkscape:current-layer="layer1" />
  <defs
     id="defs1" />
  <g
     inkscape:label="Layer 1"
     inkscape:groupmode="layer"
     id="layer1"
     transform="translate(-97.631251,-141.2875)">
    <path
       d="m 110.90705,149.30959 c 0.62177,-0.0426 1.11495,0.36486 1.15782,0.9652 0.0431,0.6432 -0.40746,1.15781 -1.02923,1.20068 -0.60034,0.0429 -1.11496,-0.40746 -1.15782,-0.98637 -0.0214,-0.6432 0.40746,-1.11496 1.02923,-1.17925"
       fill="#86da2f"
       id="path2"
       style="stroke-width:0.000264583" />
    <path
       d="m 103.42358,154.34884 c 0,-0.62177 0.47175,-1.09352 1.05066,-1.09352 0.5789,0 1.11495,0.51461 1.11495,1.11495 0,0.57891 -0.47175,1.07209 -1.02923,1.09352 -0.68606,0 -1.13638,-0.42862 -1.13638,-1.11495"
       fill="#24c2ff"
       id="path3"
       style="stroke-width:0.000264583" />
    <path
       d="m 105.11744,147.42311 c -0.0857,0.0426 -0.15002,-0.0217 -0.17145,-0.086 -0.87921,-1.62984 -0.62177,-3.68829 0.92207,-4.93184 0.40746,-0.32173 1.15782,-0.40745 1.50098,-0.0643 0.15002,0.12859 0.17145,0.25718 0.19315,0.42863 0.0426,0.36459 0.12859,0.70776 0.36433,0.98689 0.25744,0.29977 0.6006,0.42863 0.96493,0.40746 0.32174,0 0.66464,-0.0431 0.87921,0.32147 0.12859,0.21431 0.0643,1.05066 -0.12858,1.20121 -0.086,0.064 -0.17172,0.0212 -0.23601,0 -0.53605,-0.21432 -1.11496,-0.21432 -1.67243,-0.12912 -0.19315,0.0214 -0.27887,-0.0212 -0.27887,-0.23548 -0.0212,-0.36486 -0.0857,-0.68659 -0.27861,-0.98663 -0.3646,-0.64294 -1.02923,-0.66463 -1.43669,-0.0643 -0.36459,0.47175 -0.45032,1.05039 -0.53604,1.60813 -0.15029,0.51462 -0.10742,1.02923 -0.086,1.54385 0,0 -0.0212,0 0,0"
       fill="#ffcb12"
       id="path4"
       style="stroke-width:0.000264583" />
    <path
       d="m 105.69661,147.78744 a 0.1397,0.1397 0 0 1 0.0429,-0.19315 c 1.3507,-1.22237 3.3663,-1.47955 4.93184,-0.25717 0.40745,0.32173 0.66463,1.02923 0.45032,1.41525 -0.086,0.17145 -0.21432,0.23575 -0.3646,0.27861 -0.32173,0.15028 -0.64347,0.27887 -0.85778,0.6006 -0.21431,0.32147 -0.25717,0.66464 -0.17145,1.0504 0.0643,0.3003 0.19315,0.64347 -0.12885,0.92234 -0.17145,0.17145 -0.96494,0.30004 -1.17925,0.17145 -0.0857,-0.0643 -0.0643,-0.15002 -0.0429,-0.23601 0.0643,-0.6006 -0.0643,-1.13639 -0.27887,-1.651 -0.0643,-0.19315 -0.0429,-0.27861 0.15028,-0.32173 0.32147,-0.0857 0.64294,-0.25718 0.87895,-0.49319 0.51197,-0.49318 0.40481,-1.13638 -0.28152,-1.41499 -0.53578,-0.23601 -1.11469,-0.19314 -1.651,-0.15028 -0.51435,0 -1.02923,0.12885 -1.50072,0.27887"
       fill="#86da2f"
       id="path5"
       style="stroke-width:0.000264583" />
    <path
       d="m 105.39631,148.40921 c 0.0643,-0.0643 0.12859,-0.0429 0.19314,0 1.56528,0.9435 2.3585,2.80908 1.651,4.65323 -0.19314,0.47148 -0.81491,0.94324 -1.26523,0.83608 -0.19315,-0.0429 -0.27861,-0.15002 -0.38629,-0.25718 -0.21432,-0.27887 -0.45006,-0.53604 -0.81492,-0.66489 -0.3855,-0.12859 -0.70723,-0.0429 -1.0504,0.15028 -0.2786,0.17145 -0.57891,0.38576 -0.92181,0.17145 -0.21431,-0.12859 -0.5789,-0.85778 -0.49318,-1.09352 0.0429,-0.0857 0.15002,-0.0857 0.23548,-0.0857 0.60008,-0.086 1.07156,-0.38629 1.52215,-0.75062 0.15028,-0.12859 0.25744,-0.12859 0.38629,0.0429 0.19262,0.27887 0.42862,0.51462 0.72893,0.68633 0.62177,0.36433 1.20068,0.0429 1.2864,-0.6649 0.0643,-0.6006 -0.15002,-1.11495 -0.32173,-1.62983 -0.21431,-0.51435 -0.47149,-0.96467 -0.75036,-1.39356"
       fill="#24c2ff"
       id="path6"
       style="stroke-width:0.000264583" />
    <path
       d="m 104.64569,148.5378 c -0.0857,0.47175 -0.30004,0.92207 -0.60034,1.32953 -0.85778,1.28667 -2.07963,1.80128 -3.60231,1.651 -0.536042,-0.0429 -0.986363,-0.49319 -1.050656,-0.94351 -0.02143,-0.19288 0.02117,-0.32146 0.150018,-0.47148 0.17145,-0.21432 0.300302,-0.40746 0.386027,-0.6649 0.150021,-0.51462 -0.04286,-0.94351 -0.428625,-1.32953 -0.514879,-0.51462 -0.450585,-0.98637 0.171186,-1.37213 0.06165,-0.0429 0.168804,-0.0857 0.254529,-0.15029 0.150281,-0.0643 0.257441,-0.0643 0.300571,0.086 0.21431,0.53605 0.64293,0.94324 1.11495,1.28641 0.17145,0.15002 0.17145,0.23601 0.0212,0.40746 a 1.7555104,1.7555104 0 0 0 -0.47149,1.11495 c -0.0429,0.51462 0.25717,0.85778 0.77179,0.85778 0.32173,0 0.64347,-0.12859 0.92207,-0.25744 0.72919,-0.38576 1.3081,-0.92181 1.84415,-1.50098 0.0857,-0.0212 0.10715,-0.0643 0.21431,-0.0429"
       fill="#0069da"
       id="path7"
       style="stroke-width:0.000264583" />
    <path
       d="m 100.74335,143.5631 c 0.0429,0 0.17145,0.0214 0.2786,0.0429 0.87921,0.17198 1.41552,-0.15002 1.71556,-0.96493 0.19288,-0.53605 0.60034,-0.7075 1.11495,-0.42863 0.0212,0 0.0212,0.0212 0.0429,0.0212 0.53604,0.3003 0.53604,0.3646 0.21431,0.83635 -0.27861,0.38629 -0.42863,0.81491 -0.49318,1.26524 -0.0429,0.25717 -0.15002,0.30003 -0.38577,0.21431 -0.38629,-0.15002 -0.77205,-0.15002 -1.17951,0 -0.45032,0.15028 -0.6432,0.53604 -0.49318,0.98636 0.19314,0.60061 0.70908,0.85778 1.15887,1.15809 0.44979,0.30003 0.96573,0.47175 1.48141,0.68606 0.0643,0.0214 0.19288,0.0214 0.17145,0.15002 -0.0214,0.0643 -0.12859,0.0643 -0.21432,0.0643 -1.07235,0.0431 -2.08015,-0.12858 -2.91623,-0.83608 -0.77179,-0.64347 -1.350703,-1.41552 -1.264978,-2.50878 0.06456,-0.34316 0.321998,-0.6006 0.772318,-0.68633"
       fill="#ff4649"
       id="path8"
       style="stroke-width:0.000264583" />
    <path
       d="m 98.813475,150.23192 c -0.579173,0.0643 -1.13665,-0.40745 -1.179512,-0.98636 -0.04286,-0.57891 0.428625,-1.13665 0.964935,-1.17952 0.621771,-0.0643 1.179513,0.3646 1.222375,0.92208 0.02117,0.53604 -0.321733,1.20094 -1.008062,1.24354"
       fill="#0069da"
       id="path9"
       style="stroke-width:0.000264583" />
    <path
       d="m 108.76287,141.78351 c 0.60034,-0.0429 1.15781,0.42863 1.20068,1.02923 0.0429,0.57891 -0.42863,1.11496 -0.98637,1.15782 -0.62177,0.0429 -1.15782,-0.40746 -1.20068,-0.98637 -0.0643,-0.6006 0.36433,-1.13638 0.98637,-1.20068"
       fill="#ffcb12"
       id="path10"
       style="stroke-width:0.000264583" />
    <path
       d="m 102.5658,142.23383 c 0.0643,0.62178 -0.3646,1.13639 -0.98637,1.22238 -0.53605,0.064 -1.11495,-0.38629 -1.17925,-0.90091 -0.0643,-0.6858 0.30004,-1.17924 0.94324,-1.26497 0.60061,-0.0429 1.15808,0.40746 1.22238,0.9435"
       fill="#ff4649"
       id="path11"
       style="stroke-width:0.000264583" />
  </g>
</svg>
