<?xml version="1.0" encoding="UTF-8" standalone="no"?>
<!-- Created with Inkscape (http://www.inkscape.org/) -->

<svg
   width="47.029331mm"
   height="13.23719mm"
   viewBox="0 0 47.029331 13.23719"
   version="1.1"
   id="svg1"
   inkscape:version="1.4.2 (ebf0e940d0, 2025-05-08)"
   sodipodi:docname="almalinux-account-services-text.svg"
   xmlns:inkscape="http://www.inkscape.org/namespaces/inkscape"
   xmlns:sodipodi="http://sodipodi.sourceforge.net/DTD/sodipodi-0.dtd"
   xmlns="http://www.w3.org/2000/svg"
   xmlns:svg="http://www.w3.org/2000/svg">
  <sodipodi:namedview
     id="namedview1"
     pagecolor="#ffffff"
     bordercolor="#000000"
     borderopacity="0.25"
     inkscape:showpageshadow="2"
     inkscape:pageopacity="0.0"
     inkscape:pagecheckerboard="true"
     inkscape:deskcolor="#d1d1d1"
     inkscape:document-units="mm"
     inkscape:zoom="0.81156706"
     inkscape:cx="88.717253"
     inkscape:cy="25.259773"
     inkscape:window-width="1920"
     inkscape:window-height="1140"
     inkscape:window-x="0"
     inkscape:window-y="0"
     inkscape:window-maximized="1"
     inkscape:current-layer="layer1" />
  <defs
     id="defs1" />
  <g
     inkscape:label="Layer 1"
     inkscape:groupmode="layer"
     id="layer1"
     transform="translate(-81.491667,-141.81667)">
    <path
       d="m 85.989584,148.21535 -0.364067,-1.1086 h -2.455333 l -0.364067,1.1086 h -1.31445 l 2.137833,-6.12934 h 1.50495 l 2.153973,6.12961 z m -2.43893,-2.24896 h 1.678782 l -0.839523,-2.50269 z m 4.292071,2.24896 v -6.39868 h 1.140354 v 6.38281 h -1.140354 z m 7.000875,-4.49818 c 0.506677,0 0.886883,0.15848 1.187979,0.49107 0.300832,0.33258 0.459052,0.77602 0.459052,1.31471 v 2.6924 h -1.124479 v -2.6289 c 0,-0.26961 -0.0635,-0.47546 -0.189971,-0.61807 -0.127,-0.14234 -0.31697,-0.20584 -0.538691,-0.20584 -0.269082,0 -0.459317,0.0952 -0.601663,0.26934 -0.142875,0.1741 -0.206375,0.42757 -0.206375,0.72867 v 2.4548 h -1.124479 v -2.6289 c 0,-0.26961 -0.0635,-0.47546 -0.189706,-0.61807 -0.127,-0.14234 -0.316706,-0.20584 -0.538692,-0.20584 -0.237331,0 -0.459317,0.0952 -0.617537,0.26934 -0.142875,0.1741 -0.205846,0.42757 -0.205846,0.72867 v 2.4548 h -1.124479 v -4.38732 h 1.124479 v 0.45932 c 0.269081,-0.37995 0.665162,-0.60167 1.219729,-0.60167 0.538162,0 0.933979,0.20585 1.187715,0.63342 0.269081,-0.39608 0.712787,-0.60193 1.282964,-0.60193 z m 5.93937,0.11112 h 1.12448 v 4.37119 h -1.12448 v -0.52282 c -0.33258,0.42809 -0.823651,0.64982 -1.441189,0.64982 -0.570177,0 -1.092729,-0.22173 -1.504685,-0.66517 -0.427831,-0.45931 -0.633677,-0.99774 -0.633677,-1.64729 0,-0.64929 0.205846,-1.18798 0.633677,-1.64703 0.427567,-0.45932 0.934508,-0.68104 1.504685,-0.68104 0.617538,0 1.092729,0.20584 1.441189,0.64929 z m -2.090741,3.08822 c 0.221721,0.22172 0.506942,0.34819 0.855398,0.34819 0.348456,0 0.649283,-0.11086 0.871013,-0.34819 0.22172,-0.22198 0.34845,-0.52282 0.34845,-0.88715 0,-0.36433 -0.12673,-0.66516 -0.34845,-0.87101 -0.22173,-0.22172 -0.522557,-0.34845 -0.871013,-0.34845 -0.348456,0 -0.633677,0.12673 -0.855398,0.34845 -0.221721,0.22173 -0.332581,0.52256 -0.332581,0.87101 0,0.34846 0.111125,0.64956 0.332581,0.88715 z m 5.496191,0.14235 h 2.32833 v 1.15623 h -3.53219 v -6.12908 h 1.20386 z m 3.53192,-3.75365 c -0.18997,0 -0.34845,-0.0635 -0.49107,-0.19023 -0.14287,-0.14235 -0.20584,-0.30083 -0.20584,-0.4908 0,-0.19024 0.0635,-0.34846 0.20584,-0.49107 0.14262,-0.14288 0.3011,-0.20638 0.49107,-0.20638 0.18997,0 0.34846,0.0635 0.49107,0.20638 0.14234,0.14208 0.20584,0.3003 0.20584,0.49054 0,0.18997 -0.0635,0.34845 -0.20584,0.4908 -0.14288,0.127 -0.3011,0.1905 -0.49107,0.1905 z m -0.5543,4.90988 v -4.38706 h 1.14035 v 4.37145 h -1.14035 z m 4.57729,-4.49819 c 0.47519,0 0.87101,0.15849 1.18798,0.49107 0.31671,0.31671 0.47519,0.77602 0.47519,1.33033 v 2.67679 h -1.12448 v -2.55006 c 0,-0.30083 -0.0953,-0.50668 -0.23786,-0.66516 -0.14234,-0.15822 -0.36406,-0.2376 -0.63341,-0.2376 -0.30083,0 -0.52282,0.0952 -0.69691,0.28522 -0.17436,0.18998 -0.26935,0.45932 -0.26935,0.82365 v 2.36009 h -1.12448 v -4.40346 h 1.12448 v 0.49106 c 0.28522,-0.39608 0.71279,-0.60193 1.29884,-0.60193 z m 5.51207,0.11113 h 1.14035 v 4.37118 h -1.14035 v -0.4908 c -0.28523,0.39634 -0.69718,0.61807 -1.29911,0.61807 -0.47493,0 -0.87101,-0.15823 -1.18798,-0.49081 -0.31644,-0.31697 -0.45905,-0.77628 -0.45905,-1.33059 v -2.67705 h 1.14035 v 2.53418 c 0,0.30109 0.0635,0.52282 0.22173,0.68104 0.15848,0.15875 0.36433,0.22172 0.63341,0.22172 0.30109,0 0.52281,-0.095 0.69691,-0.26908 0.17463,-0.17436 0.26988,-0.45932 0.26988,-0.82365 v -2.34421 z m 6.20844,4.38679 h -1.31445 l -0.95038,-1.33006 -0.96626,1.33033 h -1.29857 l 1.59967,-2.23309 -1.53644,-2.13836 h 1.29911 l 0.88635,1.21973 0.87207,-1.21947 h 1.29857 l -1.53617,2.13837"
       fill="#ffffff"
       id="path1"
       style="stroke-width:0.000264583" />
    <path
       d="M 85.295929,154.96612 H 84.728181 L 84.335443,153.849 h -1.733561 l -0.392738,1.11712 h -0.541107 l 1.458874,-4.00777 h 0.710604 z m -1.124931,-1.57463 -0.702795,-1.96736 -0.704632,1.96736 z m 3.9159,1.3863 q -0.252639,0.12081 -0.481392,0.18833 -0.226456,0.0671 -0.48231,0.0671 -0.325215,0 -0.597146,-0.0942 -0.271931,-0.0965 -0.465774,-0.29076 -0.197517,-0.19339 -0.30776,-0.48966 -0.108405,-0.29628 -0.108405,-0.69177 0,-0.73725 0.404222,-1.15755 0.40606,-0.41938 1.070729,-0.41938 0.258151,0 0.505737,0.0726 0.250342,0.0726 0.457506,0.1773 v 0.5627 h -0.02664 q -0.231509,-0.18052 -0.479095,-0.27699 -0.244371,-0.0969 -0.478636,-0.0969 -0.430863,0 -0.680746,0.29031 -0.248045,0.28801 -0.248045,0.84795 0,0.54386 0.242533,0.83692 0.24483,0.29076 0.686258,0.29076 0.153421,0 0.312354,-0.0404 0.158473,-0.0404 0.284792,-0.10473 0.109783,-0.0565 0.206705,-0.11851 0.09646,-0.0643 0.15388,-0.11024 h 0.02664 z m 2.871813,0 q -0.252638,0.12081 -0.481391,0.18833 -0.226456,0.0671 -0.482311,0.0671 -0.325215,0 -0.597146,-0.0942 -0.271931,-0.0965 -0.465774,-0.29076 -0.196139,-0.19339 -0.304085,-0.48966 -0.107486,-0.29628 -0.107486,-0.69177 0,-0.73725 0.403763,-1.15755 0.406518,-0.41938 1.071188,-0.41938 0.258151,0 0.505737,0.0726 0.250342,0.0726 0.457505,0.1773 v 0.5627 h -0.02664 q -0.231509,-0.18052 -0.479095,-0.27699 -0.244829,-0.0969 -0.479094,-0.0969 -0.430864,0 -0.681206,0.29031 -0.248046,0.28801 -0.248046,0.84795 0,0.54386 0.242993,0.83692 0.24483,0.29076 0.686259,0.29076 0.148367,0 0.3073,-0.0404 0.158933,-0.0404 0.284793,-0.10473 0.110242,-0.0565 0.208082,-0.11851 0.09646,-0.0643 0.153421,-0.11024 h 0.02664 z m 3.211268,-1.31372 q 0,0.73495 -0.376661,1.1603 -0.376662,0.42489 -1.009637,0.42489 -0.638027,0 -1.014688,-0.42489 -0.373906,-0.42535 -0.373906,-1.1603 0,-0.73495 0.373906,-1.15984 0.376661,-0.42811 1.015148,-0.42811 0.632056,0.005 1.008717,0.43178 0.376662,0.42627 0.376662,1.16076 z m -0.522273,0 q 0,-0.58383 -0.228753,-0.86632 -0.229672,-0.28571 -0.638487,-0.28571 -0.41249,0 -0.641243,0.28571 -0.226456,0.28249 -0.226456,0.86632 0,0.56499 0.228753,0.85897 0.228753,0.29031 0.638487,0.29031 0.404222,0 0.632515,-0.28801 0.231509,-0.29077 0.231509,-0.86127 z m 3.797849,1.50205 h -0.506196 v -0.33394 q -0.255854,0.20211 -0.48966,0.31235 -0.234265,0.10933 -0.516761,0.10933 -0.474042,0 -0.737705,-0.28709 -0.263663,-0.29077 -0.263663,-0.85071 v -1.95312 h 0.505737 v 1.71151 q 0,0.22921 0.02159,0.3932 0.02159,0.16077 0.09187,0.27744 0.07258,0.11851 0.188331,0.17225 0.115755,0.0542 0.336239,0.0542 0.196599,0 0.428108,-0.10198 0.234265,-0.10243 0.435917,-0.26091 v -2.24572 h 0.506196 z m 3.509385,0 h -0.50574 v -1.71197 q 0,-0.2067 -0.0243,-0.38585 -0.0243,-0.18374 -0.0887,-0.28479 -0.0675,-0.11116 -0.19384,-0.16536 -0.12678,-0.056 -0.328432,-0.056 -0.207164,0 -0.43362,0.10289 -0.225997,0.10197 -0.433161,0.26091 v 2.24481 h -0.505736 v -3.00778 h 0.505736 v 0.33348 q 0.237022,-0.19614 0.48966,-0.30684 0.253098,-0.11024 0.519517,-0.11024 0.486906,9.1e-4 0.743216,0.29398 0.2554,0.29398 0.2554,0.84519 z m 2.53557,-0.0266 q -0.1424,0.0367 -0.31235,0.0615 -0.16674,0.0244 -0.29858,0.0244 -0.46026,0 -0.70003,-0.24805 -0.23932,-0.24712 -0.23932,-0.79374 v -1.59852 h -0.34175 v -0.42535 h 0.34175 v -0.86402 h 0.50573 v 0.86356 h 1.04455 v 0.42581 h -1.04455 v 1.36517 q 0,0.23702 0.011,0.37161 0.0106,0.13183 0.0753,0.24758 0.0593,0.10749 0.16123,0.15848 0.10519,0.0487 0.31787,0.0487 0.12402,0 0.25815,-0.0345 0.13458,-0.0377 0.19384,-0.062 h 0.0271 z m 5.50109,-1.11712 q 0,0.23426 -0.11024,0.46256 -0.10749,0.22875 -0.30408,0.38768 -0.21544,0.17226 -0.50344,0.26918 -0.2848,0.0965 -0.68902,0.0965 -0.43316,0 -0.78088,-0.0804 -0.34451,-0.0808 -0.70188,-0.23931 v -0.66743 h 0.0377 q 0.30408,0.25264 0.70233,0.39044 0.39825,0.13689 0.74827,0.13689 0.49518,0 0.76986,-0.18558 0.2802,-0.18603 0.2802,-0.49517 0,-0.26642 -0.13045,-0.3932 -0.12908,-0.12632 -0.3955,-0.1966 -0.20211,-0.0537 -0.43867,-0.0886 -0.23426,-0.0349 -0.49747,-0.0887 -0.53284,-0.113 -0.79145,-0.38493 -0.25585,-0.27469 -0.25585,-0.71336 0,-0.50344 0.42535,-0.82361 0.42535,-0.32291 1.07946,-0.32291 0.42259,0 0.77491,0.0808 0.35278,0.0808 0.62471,0.1989 v 0.62976 h -0.0381 q -0.22875,-0.19339 -0.60312,-0.32017 -0.37206,-0.12907 -0.76251,-0.12907 -0.4281,0 -0.68855,0.17776 -0.25907,0.17731 -0.25907,0.45751 0,0.25034 0.12907,0.39274 0.12862,0.14239 0.45475,0.21819 0.17134,0.0377 0.48875,0.0919 0.31786,0.0533 0.53835,0.11024 0.44694,0.11805 0.67293,0.35783 0.22554,0.23885 0.22554,0.67018 z m 3.33208,-0.30684 h -2.21495 q 0,0.27698 0.0836,0.48414 0.0827,0.20487 0.22875,0.3367 0.13964,0.12862 0.33073,0.19385 0.19384,0.0643 0.42535,0.0643 0.30684,0 0.61644,-0.1208 0.31235,-0.12403 0.44418,-0.24254 h 0.0266 v 0.55121 q -0.25539,0.10841 -0.52181,0.18099 -0.26642,0.0726 -0.5604,0.0726 -0.74781,0 -1.16765,-0.40422 -0.41984,-0.4056 -0.41984,-1.15111 0,-0.73725 0.40101,-1.17041 0.40376,-0.43362 1.06016,-0.43362 0.60863,0 0.93706,0.35599 0.33073,0.35507 0.33073,1.00918 z m -0.49242,-0.38769 q -0.003,-0.39825 -0.20211,-0.61644 -0.19614,-0.21819 -0.5999,-0.21819 -0.40652,-0.004 -0.64859,0.23519 -0.23978,0.23886 -0.27193,0.59485 z m 3.13594,-0.61644 h -0.0276 q -0.113,-0.0276 -0.22049,-0.0377 -0.10519,-0.0138 -0.25034,-0.0138 -0.23426,0 -0.45199,0.10564 -0.21819,0.10198 -0.41984,0.26642 v 2.13411 h -0.5062 v -3.0064 h 0.5062 v 0.44419 q 0.30133,-0.24254 0.53008,-0.34176 0.23656,-0.10243 0.47588,-0.10243 0.13137,0 0.19063,0.008 0.0597,0.005 0.17776,0.0239 z m 3.07576,-0.55167 -1.21634,3.0064 h -0.50895 l -1.20808,-3.0064 h 0.54892 l 0.93109,2.39272 0.92328,-2.39318 z m 1.20578,-0.50344 h -0.57051 v -0.52457 h 0.57051 z m -0.0322,3.50938 h -0.50619 v -3.00594 h 0.50619 z m 3.22459,-0.18833 q -0.2531,0.12127 -0.48231,0.18879 -0.22508,0.0671 -0.48185,0.0671 -0.32522,0 -0.59715,-0.0942 -0.27193,-0.0965 -0.46577,-0.29076 -0.19614,-0.19339 -0.30409,-0.48966 -0.10748,-0.29628 -0.10748,-0.69177 0,-0.73725 0.40376,-1.15755 0.40652,-0.41938 1.07119,-0.41938 0.25815,0 0.50528,0.0726 0.2508,0.0726 0.45842,0.1773 v 0.5627 h -0.0276 q -0.22967,-0.18052 -0.47772,-0.27699 -0.24345,-0.0969 -0.47771,-0.0969 -0.42857,0 -0.67983,0.29031 -0.24805,0.28801 -0.24805,0.84795 0,0.54386 0.24345,0.83692 0.24483,0.29076 0.68626,0.29076 0.15342,0 0.31236,-0.0404 0.15801,-0.0404 0.28433,-0.10473 0.11024,-0.0565 0.20762,-0.11851 0.0965,-0.0643 0.15342,-0.11024 h 0.0267 z m 3.16487,-1.26181 h -2.21495 q 0,0.27698 0.0836,0.48414 0.0873,0.20487 0.22967,0.3367 0.1424,0.12862 0.33073,0.19385 0.19752,0.0643 0.42719,0.0643 0.30776,0 0.61828,-0.1208 0.31235,-0.12403 0.44418,-0.24254 h 0.0266 v 0.55121 q -0.25539,0.10841 -0.52181,0.18099 -0.26642,0.0726 -0.5604,0.0726 -0.74781,0 -1.16765,-0.40422 -0.41984,-0.4056 -0.41984,-1.15111 0,-0.73725 0.40101,-1.17041 0.40376,-0.43362 1.06016,-0.43362 0.60863,0 0.93706,0.35599 0.33073,0.35507 0.33073,1.00918 z m -0.49241,-0.38769 q -0.003,-0.39825 -0.20211,-0.61644 -0.19614,-0.21819 -0.5999,-0.21819 -0.40652,0 -0.6486,0.23886 -0.23977,0.23886 -0.27193,0.59256 z m 3.40741,0.97151 q 0,0.41203 -0.34176,0.67524 -0.33945,0.26412 -0.92879,0.26412 -0.33348,0 -0.61368,-0.0781 -0.27698,-0.0808 -0.46531,-0.17455 v -0.56821 h 0.0266 q 0.23977,0.18006 0.53284,0.28801 0.29398,0.10473 0.56269,0.10473 0.33394,0 0.52227,-0.10749 0.18833,-0.10748 0.18833,-0.33899 0,-0.17777 -0.10243,-0.26918 -0.10197,-0.0919 -0.39274,-0.15617 -0.10794,-0.0244 -0.28249,-0.0565 -0.17226,-0.0322 -0.31511,-0.0698 -0.3955,-0.10519 -0.5627,-0.30684 -0.16398,-0.20487 -0.16398,-0.50069 0,-0.18603 0.0753,-0.35002 0.0781,-0.16398 0.23426,-0.29398 0.15067,-0.12586 0.38218,-0.19843 0.23426,-0.0753 0.52227,-0.0753 0.26872,0 0.5434,0.0671 0.27745,0.0643 0.46027,0.15893 v 0.54111 h -0.0322 q -0.19292,-0.1424 -0.47037,-0.23978 -0.27698,-0.0997 -0.54386,-0.0997 -0.27698,0 -0.46853,0.10795 -0.19017,0.10473 -0.19017,0.31465 0,0.18603 0.11576,0.2802 0.113,0.0942 0.36609,0.15342 0.13964,0.0322 0.31236,0.0643 0.17455,0.0322 0.2903,0.0597 0.35278,0.0804 0.54386,0.27699 0.19109,0.19889 0.19109,0.52732"
       fill="#ffffff"
       aria-label="Account Services"
       display="inline"
       style="white-space:pre;shape-inside:url(#a);stroke-width:0.000459343"
       id="path12" />
  </g>
</svg>
